<?xml version="1.0" standalone="no"?>
<!DOCTYPE svg PUBLIC "-//W3C//DTD SVG 20010904//EN"
 "http://www.w3.org/TR/2001/REC-SVG-20010904/DTD/svg10.dtd">
<svg version="1.0" xmlns="http://www.w3.org/2000/svg"
 width="1164.000000pt" height="1164.000000pt" viewBox="0 0 1164.000000 1164.000000"
 preserveAspectRatio="xMidYMid meet">
<metadata>
Created by potrace 1.14, written by Peter Selinger 2001-2017
</metadata>
<g transform="translate(0.000000,1164.000000) scale(0.100000,-0.100000)"
fill="#000000" stroke="none">
<path d="M3026 10475 c3 -49 10 -92 14 -95 4 -3 11 -31 15 -62 4 -32 11 -58
15 -58 4 0 11 -20 14 -45 4 -25 11 -45 16 -45 5 0 11 -13 15 -30 4 -16 10 -30
15 -30 5 0 11 -13 15 -30 4 -16 10 -30 15 -30 5 0 19 -21 32 -46 12 -26 28
-49 35 -51 7 -3 13 -10 13 -17 0 -15 162 -176 178 -176 6 0 12 -3 12 -7 0 -5
17 -19 38 -33 20 -14 39 -27 42 -30 12 -12 159 -80 173 -80 10 0 17 -4 17 -9
0 -5 19 -11 42 -15 23 -4 45 -11 48 -16 3 -6 41 -13 83 -16 43 -4 80 -11 83
-15 7 -12 2061 -12 2068 0 3 4 42 12 86 15 44 4 80 11 80 16 0 4 20 11 45 14
25 4 45 11 45 17 0 5 8 9 19 9 16 0 95 38 207 98 13 7 24 17 24 23 0 5 6 9 13
9 16 0 207 191 207 208 0 6 5 12 10 12 6 0 15 10 20 23 11 24 32 59 41 67 16
15 49 80 49 99 0 11 4 21 10 21 5 0 12 16 16 35 3 19 10 38 15 40 4 3 11 27
15 53 4 26 10 49 15 52 4 3 11 53 15 110 l7 105 -1972 0 -1972 0 7 -90z"/>
<path d="M7917 10488 c-41 -46 -105 -119 -143 -163 -38 -44 -78 -89 -89 -100
-11 -11 -53 -58 -94 -105 -41 -47 -109 -123 -152 -170 -42 -47 -115 -128 -161
-180 -45 -52 -91 -102 -100 -112 -10 -10 -18 -24 -18 -30 1 -7 -1 -470 -4
-1028 -5 -941 -9 -1110 -23 -1150 -3 -8 -7 -26 -9 -40 -9 -72 -17 -116 -22
-125 -4 -5 -7 -12 -8 -15 0 -3 -4 -31 -8 -63 -5 -31 -12 -59 -16 -62 -5 -3
-11 -24 -15 -48 -4 -23 -11 -46 -15 -52 -4 -5 -20 -45 -35 -89 -37 -110 -138
-327 -189 -411 -51 -82 -165 -247 -210 -305 -66 -84 -306 -330 -322 -330 -7 0
-14 -4 -16 -9 -4 -11 -123 -111 -132 -111 -7 0 -12 -4 -67 -50 -20 -16 -40
-30 -44 -30 -4 0 -37 -19 -74 -43 -36 -24 -91 -55 -121 -71 -30 -15 -62 -31
-70 -36 -41 -23 -213 -100 -225 -100 -8 0 -16 -4 -19 -9 -3 -5 -30 -15 -58
-21 -29 -7 -57 -16 -63 -20 -14 -11 -253 -66 -360 -84 -49 -8 -139 -19 -200
-24 -60 -5 -818 -10 -1683 -11 -865 0 -1612 -4 -1660 -7 -136 -10 -352 -72
-472 -137 -184 -98 -380 -269 -486 -422 -58 -84 -159 -279 -169 -326 -4 -19
-11 -38 -15 -44 -4 -5 -18 -55 -31 -110 -21 -89 -24 -122 -23 -300 1 -152 5
-215 17 -263 10 -35 17 -71 17 -80 0 -9 6 -28 13 -42 8 -14 16 -39 20 -56 14
-71 116 -250 184 -324 13 -14 23 -28 23 -31 0 -11 130 -173 146 -182 8 -4 14
-14 14 -22 0 -7 4 -15 9 -17 4 -1 27 -25 51 -53 123 -145 365 -387 545 -546
28 -24 54 -50 58 -56 4 -7 14 -13 21 -13 7 0 25 -14 41 -30 16 -17 33 -30 37
-30 5 0 20 -12 33 -26 14 -15 25 -23 25 -19 0 4 21 -11 47 -34 63 -55 70 -61
75 -55 3 2 15 -7 28 -21 13 -14 29 -25 37 -25 7 0 13 -5 13 -10 0 -6 8 -13 18
-17 9 -3 33 -19 53 -35 20 -15 40 -28 43 -28 6 0 64 -38 76 -50 10 -10 46 -31
72 -43 16 -6 28 -15 28 -19 0 -4 6 -8 14 -8 7 0 19 -6 25 -14 7 -8 26 -18 42
-21 16 -4 29 -11 29 -16 0 -5 7 -9 15 -9 9 0 18 -6 21 -14 3 -8 19 -18 35 -21
16 -4 29 -10 29 -15 0 -5 14 -11 30 -15 17 -4 30 -10 30 -15 0 -5 13 -11 30
-15 17 -4 30 -11 30 -16 0 -5 6 -9 14 -9 8 0 21 -6 28 -14 8 -7 29 -17 46 -21
18 -3 32 -10 32 -15 0 -5 14 -11 30 -15 17 -4 30 -10 30 -15 0 -5 14 -12 32
-15 17 -4 51 -18 75 -30 23 -13 56 -26 73 -30 16 -4 30 -10 30 -15 0 -4 20
-11 45 -14 25 -4 45 -11 45 -16 0 -5 16 -12 35 -16 19 -3 37 -10 40 -14 3 -5
23 -11 45 -15 22 -4 42 -10 45 -15 3 -5 23 -11 45 -15 22 -4 42 -11 45 -16 3
-4 28 -11 55 -15 28 -4 50 -10 50 -15 0 -4 20 -11 45 -15 25 -3 45 -10 45 -14
0 -4 27 -11 60 -15 33 -4 60 -11 60 -15 0 -4 28 -11 63 -15 34 -4 67 -11 72
-15 6 -4 38 -11 73 -15 34 -4 62 -11 62 -15 0 -4 6 -7 13 -7 20 2 151 -15 161
-21 5 -3 25 -6 45 -8 20 -2 79 -8 131 -14 52 -6 129 -15 170 -20 109 -12 935
-4 935 10 0 3 217 24 228 22 4 -1 7 3 7 9 0 6 6 9 13 6 7 -2 39 0 72 5 33 5
69 11 80 12 12 1 25 5 30 8 6 3 38 9 73 13 34 4 62 10 62 15 0 4 28 10 61 14
34 3 67 10 73 15 6 5 35 12 63 16 29 4 55 11 58 16 3 4 28 11 55 15 28 4 50
10 50 14 0 4 20 11 45 14 25 4 45 11 45 15 0 5 22 11 50 15 27 4 52 10 54 15
3 5 22 12 41 15 19 4 35 11 35 16 0 5 20 12 45 16 25 3 45 10 45 14 0 5 15 12
33 15 17 4 41 14 52 21 11 8 30 14 42 14 13 0 23 4 23 9 0 5 14 12 30 16 17 4
55 20 85 36 30 16 64 29 75 29 11 0 20 4 20 9 0 5 14 12 30 16 17 4 30 10 30
15 0 5 14 11 30 15 17 4 30 11 30 16 0 5 6 9 13 9 17 0 198 95 267 140 8 6 25
15 38 20 13 6 38 21 56 35 18 14 36 25 39 25 4 0 41 24 82 53 42 28 87 59 99
67 65 43 112 76 124 88 8 6 35 26 60 44 26 18 56 41 67 51 11 10 45 37 75 60
30 23 78 63 105 88 28 25 91 82 140 126 90 81 182 174 285 289 30 33 73 80 96
105 22 24 69 80 104 124 36 44 67 82 70 85 3 3 23 29 44 59 21 30 42 59 47 65
57 72 229 330 229 344 0 6 4 12 8 14 9 3 82 122 82 132 0 4 5 12 10 19 32 37
270 532 270 561 0 7 4 16 9 21 5 6 18 39 31 75 12 36 25 70 30 75 4 6 11 26
15 45 4 19 11 41 16 50 19 35 103 306 113 365 1 6 4 15 8 20 3 6 9 34 13 62 4
29 10 55 15 58 4 3 11 36 15 75 4 39 11 72 15 75 4 3 11 36 15 75 4 39 11 72
15 75 4 3 11 49 15 102 4 54 11 103 15 108 5 6 12 77 16 158 4 81 11 150 15
153 12 7 12 621 0 628 -4 3 -11 79 -15 168 -4 89 -11 167 -15 173 -5 5 -12 51
-16 100 -4 50 -11 95 -15 100 -4 6 -11 42 -15 80 -4 39 -10 75 -14 80 -3 6
-12 38 -18 73 -26 125 -40 187 -46 202 -4 8 -11 33 -16 55 -22 90 -34 131 -41
145 -4 9 -11 31 -15 50 -4 19 -11 40 -15 45 -4 6 -11 26 -15 45 -4 19 -11 40
-15 45 -4 6 -11 26 -15 45 -4 19 -10 40 -14 45 -4 6 -17 37 -30 70 -12 33 -27
69 -31 80 -5 11 -18 42 -29 69 -12 27 -21 55 -21 62 0 8 -4 14 -10 14 -5 0
-10 6 -10 12 0 24 -130 286 -218 438 -73 129 -88 152 -188 304 -123 185 -125
189 -153 222 -14 17 -33 41 -41 54 -19 28 -87 112 -167 206 -35 40 -63 76 -63
79 0 3 469 5 1043 5 1125 1 1047 -2 1257 50 57 14 219 93 285 139 61 43 219
202 260 262 41 60 114 204 131 260 23 77 54 239 54 285 l0 44 -1734 0 -1734 0
-75 -82z m-5219 -6179 c26 -12 61 -36 78 -53 36 -36 74 -102 74 -128 0 -10 6
-27 12 -38 10 -16 10 -24 0 -40 -6 -11 -12 -32 -12 -48 0 -60 -73 -152 -150
-190 -52 -25 -172 -23 -230 4 -44 21 -101 76 -129 124 -8 14 -17 62 -19 107
-4 68 -1 89 17 125 31 65 104 129 171 151 41 14 143 6 188 -14z"/>
<path d="M2518 7673 c-16 -2 -28 -9 -28 -14 0 -5 -6 -9 -13 -9 -41 0 -127
-104 -127 -152 0 -10 -4 -18 -10 -18 -6 0 -10 -27 -10 -60 0 -33 4 -60 9 -60
5 0 12 -16 15 -35 5 -27 33 -63 121 -154 l114 -118 105 107 c58 59 106 111
106 115 0 5 8 17 18 28 24 27 24 186 0 237 -20 42 -75 94 -109 105 -13 4 -27
12 -30 17 -7 11 -119 19 -161 11z"/>
<path d="M8414 2033 c-55 -59 -109 -117 -121 -129 -13 -12 -23 -25 -23 -29 0
-8 -60 -73 -231 -251 -37 -40 -66 -74 -64 -76 3 -2 -29 -37 -70 -78 -41 -41
-75 -77 -75 -80 0 -3 -33 -41 -72 -84 -40 -42 -99 -105 -130 -139 l-56 -62
571 0 c315 1 595 4 622 8 28 5 53 7 56 5 3 -2 12 2 20 8 8 6 35 15 62 18 26 4
47 11 47 15 0 8 35 18 78 23 6 1 12 5 12 9 0 4 14 10 30 14 17 4 30 10 30 15
0 4 8 10 18 14 9 3 35 17 57 30 22 14 47 28 55 32 8 4 32 25 53 46 21 21 42
38 46 38 21 0 171 183 171 209 0 5 4 11 9 13 14 5 81 135 81 157 0 11 5 21 11
23 5 2 13 22 16 46 3 23 9 42 14 42 4 0 11 29 14 65 4 36 11 68 16 71 5 3 9
34 9 70 l0 64 -579 0 -579 0 -98 -107z"/>
</g>
</svg>
